<!--?xml version="1.0" encoding="UTF-8"?-->
<svg version="1.1" xmlns="http://www.w3.org/2000/svg" width="66" height="66">
	<path
		d="M0 0 C9.12633102 5.45729929 13.9864952 12.4047981 17.3125 22.3828125 C18.21673174 33.78206186 16.96864609 42.23390193 9.6875 51.1953125 C4.41021589 56.78943168 -2.9213587 61.00474407 -10.69140625 61.62109375 C-22.35545431 61.86436149 -30.12902392 59.76795454 -38.70703125 51.67578125 C-45.29209328 44.05165618 -47.06813879 35.84130399 -46.95703125 26.0234375 C-46.26151218 16.62889005 -41.75675294 9.48862382 -34.6875 3.3828125 C-24.09173951 -3.19440771 -11.66815239 -5.48863747 0 0 Z M-34.5703125 16.64453125 C-38.20191039 22.2950944 -38.54332581 28.83068372 -37.6875 35.3828125 C-36.25629715 38.65328345 -36.25629715 38.65328345 -34.6875 41.3828125 C-32.74876858 40.42697282 -30.8115567 39.46805058 -28.875 38.5078125 C-27.25658203 37.70730469 -27.25658203 37.70730469 -25.60546875 36.890625 C-22.60911735 35.41060111 -22.60911735 35.41060111 -19.6875 33.3828125 C-20.6775 33.0528125 -21.6675 32.7228125 -22.6875 32.3828125 C-25.12511152 27.38570889 -24.81274171 23.66279283 -23.6875 18.3828125 C-22.11210275 16.30637148 -21.11054164 15.50798212 -18.6015625 14.765625 C-14.91731505 14.35067563 -12.30078275 14.17403539 -8.75 15.3828125 C-5.81559737 18.22829384 -5.28211977 20.35261183 -4.6875 24.3828125 C-4.9936555 27.35463223 -5.65171054 29.52206065 -6.6875 32.3828125 C-7.6775 32.7128125 -8.6675 33.0428125 -9.6875 33.3828125 C-7.06350067 35.13214538 -4.49275467 36.58013825 -1.6875 38.0078125 C-0.388125 38.67683594 -0.388125 38.67683594 0.9375 39.359375 C3.34065992 40.58068325 3.34065992 40.58068325 6.3125 40.3828125 C9.07599135 34.20102663 9.54027523 28.10829356 7.40234375 21.62109375 C4.20434314 14.7417934 0.68724098 11.26487958 -5.9375 7.5703125 C-17.04701256 4.05230019 -27.45654224 7.25998121 -34.5703125 16.64453125 Z "
		fill="#00FFDE"
		transform="translate(47.6875,3.6171875)"></path>
</svg>
